<svg width="24" height="24" viewBox="0 0 24 24" fill="none" xmlns="http://www.w3.org/2000/svg">
<path d="M12.96 5.28L19.3425 11.6625C20.1 12.42 20.1 13.6425 19.3425 14.4L13.77 19.9725C13.0125 20.73 11.79 20.73 11.0325 19.9725L4.65 13.59C4.29 13.23 4.08 12.735 4.08 12.225V6.6525C4.08 5.5875 4.95 4.7175 6.015 4.7175H11.5875C12.105 4.7175 12.6 4.92 12.96 5.28Z" stroke="#444444" stroke-width="0.7" stroke-miterlimit="10" stroke-linecap="round" stroke-linejoin="round"/>
<path d="M8.58 10.2525C9.15576 10.2525 9.6225 9.78576 9.6225 9.21C9.6225 8.63424 9.15576 8.1675 8.58 8.1675C8.00424 8.1675 7.5375 8.63424 7.5375 9.21C7.5375 9.78576 8.00424 10.2525 8.58 10.2525Z" stroke="#444444" stroke-width="0.7" stroke-miterlimit="10" stroke-linecap="round" stroke-linejoin="round"/>
</svg>
