<svg width="18" height="18" viewBox="0 0 18 18" fill="none" xmlns="http://www.w3.org/2000/svg">
<path d="M9.72006 3.96002L14.5069 8.7469C15.0751 9.31502 15.0751 10.2319 14.5069 10.8L10.3276 14.9794C9.75943 15.5475 8.84256 15.5475 8.27443 14.9794L3.48756 10.1925C3.21756 9.92252 3.06006 9.55127 3.06006 9.16877V4.9894C3.06006 4.19065 3.71256 3.53815 4.51131 3.53815H8.69068C9.07881 3.53815 9.45006 3.69002 9.72006 3.96002Z" stroke="#444444" stroke-width="0.7" stroke-miterlimit="10" stroke-linecap="round" stroke-linejoin="round"/>
<path d="M6.43519 7.68942C6.86701 7.68942 7.21707 7.33936 7.21707 6.90755C7.21707 6.47573 6.86701 6.12567 6.43519 6.12567C6.00338 6.12567 5.65332 6.47573 5.65332 6.90755C5.65332 7.33936 6.00338 7.68942 6.43519 7.68942Z" stroke="#444444" stroke-width="0.7" stroke-miterlimit="10" stroke-linecap="round" stroke-linejoin="round"/>
</svg>
