<svg width="18" height="18" viewBox="0 0 18 18" fill="none" xmlns="http://www.w3.org/2000/svg">
<path d="M9.72006 3.96L14.5069 8.74687C15.0751 9.315 15.0751 10.2319 14.5069 10.8L10.3276 14.9794C9.75943 15.5475 8.84256 15.5475 8.27443 14.9794L3.48756 10.1925C3.21756 9.9225 3.06006 9.55125 3.06006 9.16875V4.98937C3.06006 4.19062 3.71256 3.53812 4.51131 3.53812H8.69068C9.07881 3.53812 9.45006 3.69 9.72006 3.96Z" stroke="#444444" stroke-width="0.7" stroke-miterlimit="10" stroke-linecap="round" stroke-linejoin="round"/>
<path d="M6.43519 7.68938C6.86701 7.68938 7.21707 7.33932 7.21707 6.9075C7.21707 6.47568 6.86701 6.12563 6.43519 6.12563C6.00338 6.12563 5.65332 6.47568 5.65332 6.9075C5.65332 7.33932 6.00338 7.68938 6.43519 7.68938Z" stroke="#444444" stroke-width="0.7" stroke-miterlimit="10" stroke-linecap="round" stroke-linejoin="round"/>
</svg>
