<svg width="14" height="14" viewBox="0 0 14 14" fill="none" xmlns="http://www.w3.org/2000/svg">
<path d="M2.46066 2.97037L2.90616 3.19736L2.46066 2.97037ZM2.97038 2.4605L3.19737 2.90601L2.97038 2.4605ZM2.97038 11.5395L3.19737 11.094L3.19737 11.094L2.97038 11.5395ZM2.46066 11.0297L2.01515 11.2567L2.01515 11.2567L2.46066 11.0297ZM11.5398 11.0297L11.0943 10.8027L11.5398 11.0297ZM11.0297 11.5395L10.8027 11.094L11.0297 11.5395ZM11.5398 2.97037L11.0943 3.19736L11.0943 3.19736L11.5398 2.97037ZM11.0297 2.4605L11.2567 2.015L11.2567 2.015L11.0297 2.4605ZM7.00016 5.91668C6.72402 5.91668 6.50016 6.14053 6.50016 6.41668C6.50016 6.69282 6.72402 6.91668 7.00016 6.91668V5.91668ZM9.3335 6.91668C9.60964 6.91668 9.8335 6.69282 9.8335 6.41668C9.8335 6.14053 9.60964 5.91668 9.3335 5.91668V6.91668ZM7.00016 4.16668C6.72402 4.16668 6.50016 4.39053 6.50016 4.66668C6.50016 4.94282 6.72402 5.16668 7.00016 5.16668V4.16668ZM9.3335 5.16668C9.60964 5.16668 9.8335 4.94282 9.8335 4.66668C9.8335 4.39053 9.60964 4.16668 9.3335 4.16668V5.16668ZM4.16683 11.6667C4.16683 11.9428 4.39069 12.1667 4.66683 12.1667C4.94297 12.1667 5.16683 11.9428 5.16683 11.6667L4.16683 11.6667ZM5.16683 2.33334C5.16683 2.0572 4.94297 1.83334 4.66683 1.83334C4.39069 1.83334 4.16683 2.0572 4.16683 2.33334L5.16683 2.33334ZM11.1668 4.20002V9.80002H12.1668V4.20002H11.1668ZM9.80028 11.1667H4.20028V12.1667H9.80028V11.1667ZM2.8335 9.80002V4.20002H1.8335V9.80002H2.8335ZM4.20028 2.83334H9.80028V1.83334H4.20028V2.83334ZM2.8335 4.20002C2.8335 3.86507 2.83388 3.64393 2.84773 3.47447C2.8611 3.31085 2.88448 3.23991 2.90616 3.19736L2.01515 2.74337C1.90967 2.95039 1.86947 3.16758 1.85105 3.39304C1.83311 3.61267 1.8335 3.88157 1.8335 4.20002H2.8335ZM4.20028 1.83334C3.88182 1.83334 3.61287 1.83295 3.39319 1.8509C3.1677 1.86931 2.95043 1.9095 2.74338 2.015L3.19737 2.90601C3.23989 2.88434 3.31087 2.86095 3.47459 2.84758C3.64412 2.83373 3.86533 2.83334 4.20028 2.83334V1.83334ZM2.90616 3.19736C2.97014 3.07179 3.07206 2.96986 3.19737 2.90601L2.74338 2.015C2.42965 2.17485 2.17487 2.4299 2.01515 2.74337L2.90616 3.19736ZM4.20028 11.1667C3.86534 11.1667 3.64413 11.1663 3.47461 11.1524C3.31088 11.1391 3.2399 11.1157 3.19737 11.094L2.74338 11.985C2.95042 12.0905 3.16769 12.1307 3.39318 12.1491C3.61286 12.1671 3.88182 12.1667 4.20028 12.1667V11.1667ZM1.8335 9.80002C1.8335 10.1185 1.83311 10.3874 1.85105 10.607C1.86947 10.8325 1.90967 11.0496 2.01515 11.2567L2.90616 10.8027C2.88448 10.7601 2.8611 10.6892 2.84773 10.5256C2.83388 10.3561 2.8335 10.135 2.8335 9.80002H1.8335ZM3.19737 11.094C3.07204 11.0301 2.97013 10.9282 2.90616 10.8027L2.01515 11.2567C2.17489 11.5701 2.42967 11.8252 2.74338 11.985L3.19737 11.094ZM11.1668 9.80002C11.1668 10.135 11.1665 10.3561 11.1527 10.5256C11.1393 10.6893 11.1159 10.7602 11.0943 10.8027L11.9853 11.2567C12.0908 11.0496 12.131 10.8323 12.1493 10.6069C12.1672 10.3873 12.1668 10.1184 12.1668 9.80002H11.1668ZM9.80028 12.1667C10.1187 12.1667 10.3876 12.1671 10.6072 12.1491C10.8326 12.1307 11.0497 12.0905 11.2567 11.985L10.8027 11.094C10.7601 11.1157 10.6892 11.1391 10.5257 11.1524C10.3563 11.1663 10.1352 11.1667 9.80028 11.1667V12.1667ZM11.0943 10.8027C11.0305 10.9279 10.9284 11.03 10.8027 11.094L11.2567 11.985C11.5701 11.8253 11.8254 11.5705 11.9853 11.2567L11.0943 10.8027ZM12.1668 4.20002C12.1668 3.88162 12.1672 3.61271 12.1493 3.39312C12.131 3.16768 12.0908 2.95044 11.9853 2.74337L11.0943 3.19736C11.1159 3.23985 11.1393 3.31074 11.1527 3.47439C11.1665 3.64388 11.1668 3.86502 11.1668 4.20002H12.1668ZM9.80028 2.83334C10.1352 2.83334 10.3563 2.83373 10.5257 2.84758C10.6892 2.86094 10.7601 2.88431 10.8027 2.90601L11.2567 2.015C11.0497 1.90953 10.8326 1.86932 10.6072 1.8509C10.3876 1.83295 10.1187 1.83334 9.80028 1.83334V2.83334ZM11.9853 2.74337C11.8254 2.42956 11.5701 2.17468 11.2567 2.015L10.8027 2.90601C10.9284 2.97003 11.0305 3.07213 11.0943 3.19736L11.9853 2.74337ZM7.00016 6.91668H9.3335V5.91668H7.00016V6.91668ZM7.00016 5.16668H9.3335V4.16668H7.00016V5.16668ZM5.16683 11.6667L5.16683 2.33334L4.16683 2.33334L4.16683 11.6667L5.16683 11.6667Z" fill="#1D4ED8"/>
</svg>
