<svg width="14" height="14" viewBox="0 0 14 14" fill="none" xmlns="http://www.w3.org/2000/svg">
<path d="M2.46017 2.97296L2.90567 3.19996L2.46017 2.97296ZM2.96989 2.4631L3.19688 2.9086L2.96989 2.4631ZM2.96989 11.5421L3.19688 11.0966H3.19688L2.96989 11.5421ZM2.46017 11.0323L2.01466 11.2592L2.46017 11.0323ZM11.5393 11.0323L11.0938 10.8053L11.5393 11.0323ZM11.0292 11.5421L10.8022 11.0966L11.0292 11.5421ZM11.5393 2.97296L11.0938 3.19996L11.5393 2.97296ZM11.0292 2.4631L11.2562 2.01759L11.0292 2.4631ZM6.99967 5.91927C6.72353 5.91927 6.49967 6.14313 6.49967 6.41927C6.49967 6.69541 6.72353 6.91927 6.99967 6.91927V5.91927ZM9.33301 6.91927C9.60915 6.91927 9.83301 6.69541 9.83301 6.41927C9.83301 6.14313 9.60915 5.91927 9.33301 5.91927V6.91927ZM6.99967 4.16927C6.72353 4.16927 6.49967 4.39313 6.49967 4.66927C6.49967 4.94541 6.72353 5.16927 6.99967 5.16927V4.16927ZM9.33301 5.16927C9.60915 5.16927 9.83301 4.94541 9.83301 4.66927C9.83301 4.39313 9.60915 4.16927 9.33301 4.16927V5.16927ZM4.16634 11.6693C4.16634 11.9454 4.3902 12.1693 4.66634 12.1693C4.94248 12.1693 5.16634 11.9454 5.16634 11.6693H4.16634ZM5.16634 2.33594C5.16634 2.0598 4.94248 1.83594 4.66634 1.83594C4.3902 1.83594 4.16634 2.0598 4.16634 2.33594L5.16634 2.33594ZM11.1663 4.20261V9.80261H12.1663V4.20261H11.1663ZM9.79979 11.1693H4.19979V12.1693H9.79979V11.1693ZM2.83301 9.80261V4.20261H1.83301V9.80261H2.83301ZM4.19979 2.83594H9.79979V1.83594H4.19979V2.83594ZM2.83301 4.20261C2.83301 3.86766 2.8334 3.64653 2.84724 3.47707C2.86061 3.31344 2.88399 3.24251 2.90567 3.19996L2.01466 2.74597C1.90918 2.95298 1.86898 3.17017 1.85056 3.39563C1.83262 3.61526 1.83301 3.88416 1.83301 4.20261H2.83301ZM4.19979 1.83594C3.88134 1.83594 3.61238 1.83555 3.3927 1.85349C3.16721 1.87191 2.94994 1.9121 2.74289 2.01759L3.19688 2.9086C3.2394 2.88694 3.31038 2.86355 3.47411 2.85017C3.64364 2.83633 3.86485 2.83594 4.19979 2.83594V1.83594ZM2.90567 3.19996C2.96965 3.07439 3.07157 2.97245 3.19688 2.9086L2.74289 2.01759C2.42916 2.17745 2.17439 2.43249 2.01466 2.74597L2.90567 3.19996ZM4.19979 11.1693C3.86485 11.1693 3.64364 11.1689 3.47412 11.155C3.3104 11.1417 3.23941 11.1183 3.19688 11.0966L2.74289 11.9876C2.94993 12.0931 3.1672 12.1333 3.39269 12.1517C3.61237 12.1697 3.88133 12.1693 4.19979 12.1693V11.1693ZM1.83301 9.80261C1.83301 10.1211 1.83262 10.39 1.85056 10.6096C1.86898 10.835 1.90918 11.0522 2.01466 11.2592L2.90567 10.8053C2.88399 10.7627 2.86061 10.6918 2.84724 10.5282C2.8334 10.3587 2.83301 10.1376 2.83301 9.80261H1.83301ZM3.19688 11.0966C3.07155 11.0327 2.96964 10.9308 2.90567 10.8053L2.01466 11.2592C2.1744 11.5727 2.42918 11.8278 2.74289 11.9876L3.19688 11.0966ZM11.1663 9.80261C11.1663 10.1376 11.166 10.3587 11.1522 10.5282C11.1388 10.6919 11.1155 10.7628 11.0938 10.8053L11.9848 11.2592C12.0903 11.0522 12.1305 10.8349 12.1489 10.6095C12.1668 10.3899 12.1663 10.121 12.1663 9.80261H11.1663ZM9.79979 12.1693C10.1182 12.1693 10.3871 12.1697 10.6067 12.1517C10.8321 12.1333 11.0492 12.0931 11.2562 11.9876L10.8022 11.0966C10.7596 11.1183 10.6887 11.1417 10.5252 11.155C10.3558 11.1689 10.1347 11.1693 9.79979 11.1693V12.1693ZM11.0938 10.8053C11.03 10.9305 10.9279 11.0326 10.8022 11.0966L11.2562 11.9876C11.5696 11.8279 11.8249 11.5731 11.9848 11.2592L11.0938 10.8053ZM12.1663 4.20261C12.1663 3.88421 12.1668 3.61531 12.1489 3.39571C12.1305 3.17028 12.0903 2.95304 11.9848 2.74597L11.0938 3.19996C11.1155 3.24245 11.1388 3.31334 11.1522 3.47699C11.166 3.64648 11.1663 3.86761 11.1663 4.20261H12.1663ZM9.79979 2.83594C10.1347 2.83594 10.3558 2.83633 10.5252 2.85017C10.6887 2.86354 10.7596 2.88691 10.8022 2.9086L11.2562 2.01759C11.0492 1.91213 10.8321 1.87192 10.6067 1.85349C10.3871 1.83555 10.1182 1.83594 9.79979 1.83594V2.83594ZM11.9848 2.74597C11.8249 2.43216 11.5696 2.17728 11.2562 2.01759L10.8022 2.9086C10.9279 2.97262 11.03 3.07472 11.0938 3.19996L11.9848 2.74597ZM6.99967 6.91927H9.33301V5.91927H6.99967V6.91927ZM6.99967 5.16927H9.33301V4.16927H6.99967V5.16927ZM5.16634 11.6693L5.16634 2.33594L4.16634 2.33594L4.16634 11.6693H5.16634Z" fill="#1D4ED8"/>
</svg>
