<svg width="14" height="14" viewBox="0 0 14 14" fill="none" xmlns="http://www.w3.org/2000/svg">
<path d="M2.46066 2.97034L2.90616 3.19733L2.46066 2.97034ZM2.97038 2.46047L3.19737 2.90598L2.97038 2.46047ZM2.97038 11.5395L3.19737 11.094H3.19737L2.97038 11.5395ZM2.46066 11.0296L2.01515 11.2566L2.46066 11.0296ZM11.5398 11.0296L11.0943 10.8026L11.5398 11.0296ZM11.0297 11.5395L10.8027 11.094L11.0297 11.5395ZM11.5398 2.97034L11.0943 3.19733L11.5398 2.97034ZM11.0297 2.46047L11.2567 2.01497L11.0297 2.46047ZM7.00016 5.91665C6.72402 5.91665 6.50016 6.1405 6.50016 6.41665C6.50016 6.69279 6.72402 6.91665 7.00016 6.91665V5.91665ZM9.3335 6.91665C9.60964 6.91665 9.8335 6.69279 9.8335 6.41665C9.8335 6.1405 9.60964 5.91665 9.3335 5.91665V6.91665ZM7.00016 4.16665C6.72402 4.16665 6.50016 4.3905 6.50016 4.66665C6.50016 4.94279 6.72402 5.16665 7.00016 5.16665V4.16665ZM9.3335 5.16665C9.60964 5.16665 9.8335 4.94279 9.8335 4.66665C9.8335 4.3905 9.60964 4.16665 9.3335 4.16665V5.16665ZM4.16683 11.6666C4.16683 11.9428 4.39069 12.1666 4.66683 12.1666C4.94297 12.1666 5.16683 11.9428 5.16683 11.6666H4.16683ZM5.16683 2.33331C5.16683 2.05717 4.94297 1.83331 4.66683 1.83331C4.39069 1.83331 4.16683 2.05717 4.16683 2.33331L5.16683 2.33331ZM11.1668 4.19999V9.79999H12.1668V4.19999H11.1668ZM9.80028 11.1666H4.20028V12.1666H9.80028V11.1666ZM2.8335 9.79999V4.19999H1.8335V9.79999H2.8335ZM4.20028 2.83331H9.80028V1.83331H4.20028V2.83331ZM2.8335 4.19999C2.8335 3.86504 2.83388 3.6439 2.84773 3.47444C2.8611 3.31082 2.88448 3.23988 2.90616 3.19733L2.01515 2.74334C1.90967 2.95036 1.86947 3.16754 1.85105 3.39301C1.83311 3.61264 1.8335 3.88154 1.8335 4.19999H2.8335ZM4.20028 1.83331C3.88182 1.83331 3.61287 1.83292 3.39319 1.85087C3.1677 1.86928 2.95043 1.90947 2.74338 2.01497L3.19737 2.90598C3.23989 2.88431 3.31087 2.86092 3.47459 2.84755C3.64412 2.8337 3.86533 2.83331 4.20028 2.83331V1.83331ZM2.90616 3.19733C2.97014 3.07176 3.07206 2.96983 3.19737 2.90598L2.74338 2.01497C2.42965 2.17482 2.17487 2.42987 2.01515 2.74334L2.90616 3.19733ZM4.20028 11.1666C3.86534 11.1666 3.64413 11.1663 3.47461 11.1524C3.31088 11.139 3.2399 11.1156 3.19737 11.094L2.74338 11.985C2.95042 12.0905 3.16769 12.1307 3.39318 12.1491C3.61286 12.167 3.88182 12.1666 4.20028 12.1666V11.1666ZM1.8335 9.79999C1.8335 10.1184 1.83311 10.3873 1.85105 10.607C1.86947 10.8324 1.90967 11.0496 2.01515 11.2566L2.90616 10.8026C2.88448 10.7601 2.8611 10.6891 2.84773 10.5255C2.83388 10.3561 2.8335 10.1349 2.8335 9.79999H1.8335ZM3.19737 11.094C3.07204 11.0301 2.97013 10.9282 2.90616 10.8026L2.01515 11.2566C2.17489 11.5701 2.42967 11.8251 2.74338 11.985L3.19737 11.094ZM11.1668 9.79999C11.1668 10.135 11.1665 10.3561 11.1527 10.5256C11.1393 10.6893 11.1159 10.7601 11.0943 10.8026L11.9853 11.2566C12.0908 11.0496 12.131 10.8323 12.1493 10.6069C12.1672 10.3873 12.1668 10.1184 12.1668 9.79999H11.1668ZM9.80028 12.1666C10.1187 12.1666 10.3876 12.167 10.6072 12.1491C10.8326 12.1306 11.0497 12.0904 11.2567 11.985L10.8027 11.094C10.7601 11.1157 10.6892 11.139 10.5257 11.1524C10.3563 11.1663 10.1352 11.1666 9.80028 11.1666V12.1666ZM11.0943 10.8026C11.0305 10.9278 10.9284 11.0299 10.8027 11.094L11.2567 11.985C11.5701 11.8253 11.8254 11.5705 11.9853 11.2566L11.0943 10.8026ZM12.1668 4.19999C12.1668 3.88159 12.1672 3.61268 12.1493 3.39309C12.131 3.16765 12.0908 2.95041 11.9853 2.74334L11.0943 3.19733C11.1159 3.23982 11.1393 3.31071 11.1527 3.47436C11.1665 3.64385 11.1668 3.86499 11.1668 4.19999H12.1668ZM9.80028 2.83331C10.1352 2.83331 10.3563 2.8337 10.5257 2.84755C10.6892 2.86091 10.7601 2.88428 10.8027 2.90598L11.2567 2.01497C11.0497 1.9095 10.8326 1.86929 10.6072 1.85087C10.3876 1.83292 10.1187 1.83331 9.80028 1.83331V2.83331ZM11.9853 2.74334C11.8254 2.42953 11.5701 2.17465 11.2567 2.01497L10.8027 2.90598C10.9284 2.97 11.0305 3.0721 11.0943 3.19733L11.9853 2.74334ZM7.00016 6.91665H9.3335V5.91665H7.00016V6.91665ZM7.00016 5.16665H9.3335V4.16665H7.00016V5.16665ZM5.16683 11.6666L5.16683 2.33331L4.16683 2.33331L4.16683 11.6666H5.16683Z" fill="#1D4ED8"/>
</svg>
