<svg width="16" height="16" viewBox="0 0 16 16" fill="none" xmlns="http://www.w3.org/2000/svg">
<path d="M5.99967 11.3333H9.99967M5.99967 9.33333H9.99967M12.6661 6H9.73275C9.35938 6 9.17288 5.99999 9.03027 5.92733C8.90483 5.86341 8.80292 5.76145 8.739 5.63601C8.66634 5.4934 8.66634 5.3067 8.66634 4.93333V2M12.6663 11.8667V6.43599C12.6663 6.12699 12.6665 5.97248 12.6331 5.82621C12.6036 5.6965 12.5549 5.57192 12.4885 5.45666C12.4135 5.32668 12.3085 5.21331 12.0986 4.98657L9.96647 2.68392C9.73314 2.43192 9.61637 2.30592 9.47754 2.21562C9.35449 2.13558 9.21877 2.07643 9.07644 2.04052C8.91586 2 8.74448 2 8.40105 2H5.46647C4.71973 2 4.34609 2 4.06087 2.14532C3.80999 2.27316 3.60616 2.47714 3.47833 2.72803C3.33301 3.01324 3.33301 3.3866 3.33301 4.13334V11.8667C3.33301 12.6134 3.33301 12.9868 3.47833 13.272C3.60616 13.5229 3.80999 13.7268 4.06087 13.8547C4.34609 14 4.71973 14 5.46647 14H10.5331C11.2799 14 11.653 14 11.9382 13.8547C12.1891 13.7268 12.3933 13.5229 12.5212 13.272C12.6665 12.9868 12.6663 12.6134 12.6663 11.8667Z" stroke="#0B0B0B" stroke-linecap="round" stroke-linejoin="round"/>
</svg>
