<svg width="20" height="20" viewBox="0 0 20 20" fill="none" xmlns="http://www.w3.org/2000/svg">
<path fill-rule="evenodd" clip-rule="evenodd" d="M8.3335 5.00062C7.44944 5.00062 6.60159 5.35181 5.97647 5.97693C5.35135 6.60205 5.00016 7.4499 5.00016 8.33395C5.00016 9.21801 5.35135 10.0659 5.97647 10.691C6.60159 11.3161 7.44944 11.6673 8.3335 11.6673C9.21755 11.6673 10.0654 11.3161 10.6905 10.691C11.3156 10.0659 11.6668 9.21801 11.6668 8.33395C11.6668 7.4499 11.3156 6.60205 10.6905 5.97693C10.0654 5.35181 9.21755 5.00062 8.3335 5.00062ZM3.3335 8.33395C3.3334 7.54704 3.51903 6.77121 3.87531 6.06957C4.23158 5.36793 4.74843 4.76028 5.38383 4.29606C6.01922 3.83183 6.75522 3.52413 7.53195 3.39798C8.30869 3.27183 9.10423 3.33079 9.85388 3.57008C10.6035 3.80936 11.2861 4.2222 11.8461 4.77503C12.4061 5.32786 12.8278 6.00506 13.0767 6.75156C13.3256 7.49806 13.3949 8.29278 13.2788 9.07108C13.1627 9.84938 12.8645 10.5893 12.4085 11.2306L16.4227 15.2448C16.5745 15.402 16.6585 15.6125 16.6566 15.831C16.6547 16.0495 16.567 16.2585 16.4125 16.413C16.258 16.5675 16.049 16.6551 15.8305 16.657C15.612 16.6589 15.4015 16.5749 15.2443 16.4231L11.231 12.4098C10.483 12.9417 9.60295 13.2574 8.68739 13.3224C7.77183 13.3874 6.85606 13.199 6.04041 12.7781C5.22477 12.3571 4.54074 11.7198 4.06327 10.9359C3.5858 10.152 3.33332 9.25181 3.3335 8.33395Z" fill="#B0BABF"/>
</svg>
